<mxfile host="app.diagrams.net" modified="2022-08-26T10:32:05.265Z" agent="5.0 (Macintosh; Intel Mac OS X 10_15_7) AppleWebKit/537.36 (KHTML, like Gecko) Chrome/104.0.0.0 Safari/537.36" etag="rRE9ulm-QIyRQyVWQ8es" version="20.2.7" type="github">
  <diagram id="-y2oDi7dRCR97qEJf1n4" name="第 1 页">
    <mxGraphModel dx="1563" dy="798" grid="1" gridSize="10" guides="1" tooltips="1" connect="1" arrows="1" fold="1" page="1" pageScale="1" pageWidth="827" pageHeight="1169" math="0" shadow="0">
      <root>
        <mxCell id="0" />
        <mxCell id="1" parent="0" />
        <mxCell id="7GPz_mKKXDX6CwlmA-4s-2" value="ESTABLISH" style="rounded=0;whiteSpace=wrap;html=1;fontSize=16;fillColor=#d5e8d4;strokeColor=#82b366;gradientColor=#97d077;" vertex="1" parent="1">
          <mxGeometry x="120" y="180" width="120" height="70" as="geometry" />
        </mxCell>
        <mxCell id="7GPz_mKKXDX6CwlmA-4s-3" value="客户端" style="aspect=fixed;perimeter=ellipsePerimeter;html=1;align=center;shadow=0;dashed=0;spacingTop=3;image;image=img/lib/active_directory/home_page.svg;fontSize=16;" vertex="1" parent="1">
          <mxGeometry x="141.11" y="70" width="77.78" height="70" as="geometry" />
        </mxCell>
        <mxCell id="7GPz_mKKXDX6CwlmA-4s-4" value="服务端" style="aspect=fixed;perimeter=ellipsePerimeter;html=1;align=center;shadow=0;dashed=0;spacingTop=3;image;image=img/lib/active_directory/web_server.svg;fontSize=16;" vertex="1" parent="1">
          <mxGeometry x="508" y="60" width="64" height="80" as="geometry" />
        </mxCell>
        <mxCell id="7GPz_mKKXDX6CwlmA-4s-5" value="ESTABLISH" style="rounded=0;whiteSpace=wrap;html=1;fontSize=16;fillColor=#d5e8d4;strokeColor=#82b366;gradientColor=#97d077;" vertex="1" parent="1">
          <mxGeometry x="480" y="175" width="120" height="145" as="geometry" />
        </mxCell>
        <mxCell id="7GPz_mKKXDX6CwlmA-4s-6" value="FIN_WAIT_1" style="rounded=0;whiteSpace=wrap;html=1;fontSize=16;fillColor=#fff2cc;strokeColor=#d6b656;gradientColor=#ffd966;" vertex="1" parent="1">
          <mxGeometry x="120" y="280" width="120" height="60" as="geometry" />
        </mxCell>
        <mxCell id="7GPz_mKKXDX6CwlmA-4s-7" value="&lt;b style=&quot;color: rgb(255, 153, 51); font-size: 16px;&quot;&gt;FIN&lt;/b&gt;" style="rounded=0;orthogonalLoop=1;jettySize=auto;html=1;fontSize=16;exitX=1;exitY=0;exitDx=0;exitDy=0;fillColor=#ffcd28;gradientColor=#ffa500;strokeColor=#d79b00;strokeWidth=2;entryX=0;entryY=0;entryDx=0;entryDy=0;" edge="1" parent="1" target="7GPz_mKKXDX6CwlmA-4s-8">
          <mxGeometry x="-0.1201" y="-2" relative="1" as="geometry">
            <mxPoint x="550" y="280" as="targetPoint" />
            <mxPoint as="offset" />
            <mxPoint x="240" y="280" as="sourcePoint" />
          </mxGeometry>
        </mxCell>
        <mxCell id="7GPz_mKKXDX6CwlmA-4s-8" value="CLOSE_WAIT" style="rounded=0;whiteSpace=wrap;html=1;fontSize=16;fillColor=#e6d0de;strokeColor=#996185;gradientColor=#d5739d;" vertex="1" parent="1">
          <mxGeometry x="480" y="320" width="120" height="160" as="geometry" />
        </mxCell>
        <mxCell id="7GPz_mKKXDX6CwlmA-4s-9" value="&lt;b style=&quot;font-size: 16px;&quot;&gt;&lt;font color=&quot;#cc00cc&quot;&gt;ACK&lt;br&gt;&lt;/font&gt;&lt;/b&gt;" style="rounded=0;orthogonalLoop=1;jettySize=auto;html=1;fontSize=16;fillColor=#e6d0de;gradientColor=#d5739d;strokeColor=#996185;strokeWidth=2;entryX=1;entryY=1;entryDx=0;entryDy=0;exitX=0;exitY=0;exitDx=0;exitDy=0;" edge="1" parent="1" target="7GPz_mKKXDX6CwlmA-4s-6" source="7GPz_mKKXDX6CwlmA-4s-8">
          <mxGeometry x="-0.1061" relative="1" as="geometry">
            <mxPoint x="250" y="340" as="targetPoint" />
            <mxPoint as="offset" />
            <mxPoint x="550" y="340" as="sourcePoint" />
          </mxGeometry>
        </mxCell>
        <mxCell id="7GPz_mKKXDX6CwlmA-4s-10" value="FIN_WAIT_2" style="rounded=0;whiteSpace=wrap;html=1;fontSize=16;fillColor=#ffcd28;strokeColor=#d79b00;gradientColor=#ffa500;" vertex="1" parent="1">
          <mxGeometry x="120" y="340" width="120" height="100" as="geometry" />
        </mxCell>
        <mxCell id="7GPz_mKKXDX6CwlmA-4s-11" value="CLOSE" style="rounded=0;whiteSpace=wrap;html=1;fontSize=16;fillColor=#f5f5f5;strokeColor=#666666;gradientColor=#b3b3b3;" vertex="1" parent="1">
          <mxGeometry x="120" y="440" width="120" height="80" as="geometry" />
        </mxCell>
        <mxCell id="7GPz_mKKXDX6CwlmA-4s-15" value="&lt;b style=&quot;font-size: 16px;&quot;&gt;&lt;font color=&quot;#99004d&quot;&gt;RST&lt;br&gt;&lt;/font&gt;&lt;/b&gt;" style="rounded=0;orthogonalLoop=1;jettySize=auto;html=1;fontSize=16;exitX=1;exitY=1;exitDx=0;exitDy=0;fillColor=#f8cecc;gradientColor=#ea6b66;strokeColor=#b85450;strokeWidth=2;entryX=0;entryY=1;entryDx=0;entryDy=0;" edge="1" parent="1" target="7GPz_mKKXDX6CwlmA-4s-8" source="7GPz_mKKXDX6CwlmA-4s-10">
          <mxGeometry x="-0.1161" y="2" relative="1" as="geometry">
            <mxPoint x="550" y="500" as="targetPoint" />
            <mxPoint as="offset" />
            <mxPoint x="240" y="500" as="sourcePoint" />
          </mxGeometry>
        </mxCell>
        <mxCell id="7GPz_mKKXDX6CwlmA-4s-16" value="CLOSE" style="rounded=0;whiteSpace=wrap;html=1;fontSize=16;fillColor=#f5f5f5;strokeColor=#666666;gradientColor=#b3b3b3;" vertex="1" parent="1">
          <mxGeometry x="480" y="480" width="120" height="40" as="geometry" />
        </mxCell>
        <mxCell id="7GPz_mKKXDX6CwlmA-4s-19" value="主动调用&lt;br&gt;&amp;nbsp;close () 函数" style="text;html=1;align=center;verticalAlign=middle;resizable=0;points=[];autosize=1;strokeColor=#36393d;fillColor=#ffff88;fontSize=16;" vertex="1" parent="1">
          <mxGeometry x="120" y="240" width="120" height="50" as="geometry" />
        </mxCell>
        <mxCell id="7GPz_mKKXDX6CwlmA-4s-24" value="我没有发送和读取数据的能力啦！" style="shape=callout;whiteSpace=wrap;html=1;perimeter=calloutPerimeter;fillColor=#dae8fc;strokeColor=#6c8ebf;size=30;position=0.54;base=20;position2=0.88;fontSize=16;" vertex="1" parent="1">
          <mxGeometry x="-15" y="175" width="130" height="100" as="geometry" />
        </mxCell>
        <mxCell id="7GPz_mKKXDX6CwlmA-4s-25" value="" style="shape=flexArrow;endArrow=classic;html=1;rounded=0;fontSize=16;fillColor=#d5e8d4;strokeColor=#82b366;gradientColor=#97d077;" edge="1" parent="1">
          <mxGeometry width="50" height="50" relative="1" as="geometry">
            <mxPoint x="460" y="400" as="sourcePoint" />
            <mxPoint x="260" y="400" as="targetPoint" />
          </mxGeometry>
        </mxCell>
        <mxCell id="7GPz_mKKXDX6CwlmA-4s-26" value="发送数据" style="text;html=1;align=center;verticalAlign=middle;resizable=0;points=[];autosize=1;strokeColor=none;fillColor=#d5e8d4;fontSize=16;gradientColor=#97d077;" vertex="1" parent="1">
          <mxGeometry x="320" y="360" width="90" height="30" as="geometry" />
        </mxCell>
      </root>
    </mxGraphModel>
  </diagram>
</mxfile>
